<svg width="512" height="512" viewBox="0 0 512 512" fill="none" xmlns="http://www.w3.org/2000/svg">
<rect width="512" height="512" fill="white"/>
<path d="M233.893 462.392C243.361 458.562 246.956 455.244 251.484 446.204H287.625C287.625 451.282 303.263 466.835 314.171 466.835C322.167 466.835 320.876 464.864 329.203 463.979C338.159 463.026 348.119 463.026 347.114 466.518C346.474 468.74 340.078 468.74 331.762 474.135C323.498 479.498 315.77 477.627 306.175 477.095C296.907 476.581 291.463 465.248 284.427 469.374C279.792 472.093 288.904 478.896 286.346 483.975C284.219 488.195 276.111 474.135 271.314 474.77C268.256 475.175 268.435 480.715 266.196 480.801C261.523 480.98 264.574 462.656 257.241 472.866C249.908 483.075 240.61 486.197 238.051 485.562C231.397 483.911 250.844 473.501 244.768 470.327C236.452 470.327 229.416 476.357 221.1 474.77C211.501 472.938 205.428 469.692 194.874 470.327C190.024 470.618 187.517 471.596 183.04 474.135C181.565 474.972 177.923 473.818 179.522 471.914C181.121 470.009 183.36 465.883 191.036 464.613C198.712 463.344 217.795 465.442 233.893 462.392Z" fill="#004389"/>
<path d="M190.614 81.2572C215.186 85.2606 240.972 91.5714 250.376 103.706V127.064C243.399 127.974 232.647 130.428 221.557 125.861C216.4 123.738 227.145 122.141 231.871 115.84C236.421 109.773 211.906 115.84 197.895 115.84C192.131 115.84 211.58 110.216 218.22 102.796C223.377 97.0318 203.659 102.796 181.514 102.796C176.652 102.796 179.364 98.6724 183.94 97.0318C200.018 91.268 165.132 93.6949 150.874 93.6949C136.675 93.6949 128.892 94.414 114.471 99.1553C95.9212 105.255 85.0457 111.896 72.9114 124.031C62.4401 134.502 85.3244 127.842 99.9102 130.401C117.202 133.435 67.0378 134.693 55.0132 150.726C52.283 154.366 65.9341 148.906 81.102 148.906C91.8062 148.906 66.7503 153.619 56.8334 161.647C37.7218 177.118 135.373 149.609 167.559 154.973C176.66 156.49 179.26 163.388 175.143 164.074C162.402 166.197 133.123 179.545 146.324 179.545C155.728 179.545 162.402 179.545 156.335 183.185C151.521 186.073 140.094 195.836 146.324 193.5C153.605 190.769 157.069 187.736 164.525 187.736C170.593 187.736 171.503 188.308 173.93 191.679C175.143 203.207 179.997 238.431 173.93 242.982C161.493 252.309 121.145 256.598 132.066 260.542C139.043 263.061 158.155 260.238 156.335 264.485C154.515 268.732 147.054 272.733 139.043 273.586C125.981 274.976 119.878 266.466 112.292 255.889L112.045 255.544C107.853 249.7 117.808 255.544 129.336 240.983C135.784 232.837 115.381 243.554 101.73 243.554C96.6902 243.554 118.112 230.509 108.101 232.329C102.976 233.261 98.7013 234.969 93.5397 235.666C86.7052 236.59 80.1271 235.257 73.8214 235.666C63.6099 236.328 46.764 235.852 54.7098 243.554C58.5839 247.309 58.773 246.431 64.1139 247.194C68.361 247.801 74.5182 250.363 78.6751 251.441C86.8658 253.564 94.0364 250.322 99.9102 256.598C106.102 263.214 107.155 267.843 114.775 274.193C122.055 280.26 128.025 283.397 136.01 286.63C151.305 292.825 159.006 291.241 175.75 288.451C183.03 287.237 183.94 284.204 193.648 281.17C196.429 280.301 195.394 285.403 196.985 287.844C202.136 295.747 207.019 298.049 216.703 301.798C230.299 307.062 236.118 304.832 252.803 304.832C257.417 304.832 262.909 307.035 266.454 309.989C273.734 316.056 285.565 336.381 285.565 325.46V252.351C285.565 245.374 300.43 233.846 311.351 233.846C333.226 233.846 355.052 239.302 382.033 232.936C389.875 231.086 389.135 229.137 395.988 228.082C411.762 225.656 412.731 228.082 432.997 228.082C441.188 228.082 448.165 228.082 462.423 220.195L462.447 220.182C465.381 218.559 471.225 215.326 473.04 209.578C475.006 203.355 466.973 210.488 458.479 213.218C454.419 214.523 450.096 216.079 447.558 213.218C442.808 207.861 457.169 204.508 463.333 198.96C478.501 185.309 426.619 211.677 426.93 206.847C427.242 202.018 430.442 200.34 432.997 196.23C439.974 185.006 414.324 208.032 402.055 205.331C399.749 204.823 397.415 204.188 395.988 202.297C390.87 195.519 426.485 191.516 415.706 189.556C405.695 187.736 387.19 186.522 387.19 186.522C370.795 185.343 341.687 184.702 347.45 189.556C355.558 196.383 368.283 197.679 371.416 202.297C374.548 206.915 356.714 199.997 343.203 202.297C328.945 204.724 388.404 222.319 377.483 224.139C354.228 228.015 311.957 228.082 318.328 224.139C322.12 221.791 322.877 220.172 325.002 216.251C327.711 211.252 325.002 207.454 327.125 202.297C328.316 199.405 331.979 199.567 332.889 198.353C333.799 197.14 334.709 192.893 333.496 192.286C332.282 191.679 330.945 192.768 329.855 191.679C328.767 190.59 328.682 189.614 329.552 188.343C330.641 186.751 332.889 187.129 334.103 187.129C335.316 187.129 335.619 184.096 334.103 183.792C332.586 183.489 330.682 184.748 329.552 183.185C328.433 181.637 329.364 180.069 330.159 178.332C332.123 174.039 341.044 179.368 341.687 174.691C342.364 169.756 336.297 172.648 332.282 169.838C329.249 167.714 329.444 162.704 333.799 159.22C336.833 156.793 340.782 155.836 343.507 155.883C367.673 156.304 365.729 159.122 390.831 165.894C418.572 173.378 493.573 195.91 466.367 178.028C443.149 162.768 427.233 155.58 439.974 154.973C454.216 154.295 469.378 161.698 462.423 153.153C451.805 140.109 419.953 135.255 439.064 137.378C451.259 138.733 451.199 140.109 456.052 141.322C460.906 142.535 443.149 130.087 432.997 124.941C406.204 111.357 388.964 104.557 358.978 104.009C341.891 103.697 332.336 103.204 315.901 109.166C300.951 114.59 293.756 118.267 280.712 129.794C269.739 139.491 318.68 122.772 305.89 130.401C288.599 140.715 252.626 163.588 269.487 156.793C289.812 148.603 301.643 146.176 292.846 152.243C282.844 159.14 258.861 180.707 271.307 174.691C289.509 165.894 309.531 151.636 319.541 157.703C322.785 159.669 321.857 164.667 319.238 167.411C312.867 174.085 304.373 169.231 292.542 171.961C279.853 174.89 267.364 181.669 263.117 189.556C258.334 198.437 282.532 181.972 285.869 186.826C287.144 188.681 287.433 190.48 285.262 191.073C281.925 191.983 281.015 190.769 277.981 192.893C277.011 193.572 276.857 195.552 277.981 195.926C281.622 197.14 282.835 194.41 285.565 195.926C286.497 196.444 286.264 198.596 285.262 198.96C281.925 200.173 281.015 199.263 277.678 199.567C273.618 199.936 281.434 204.553 284.959 205.027C300.733 207.151 316.508 203.51 316.508 205.027V214.431C316.508 218.696 309.627 221.421 301.34 225.959C288.599 232.936 276.464 240.556 276.464 251.138V300.282C276.464 308.595 258.87 292.402 258.87 284.81C258.87 251.441 260.367 135.558 260.367 135.558C260.367 135.558 286.191 118.57 270.094 124.334C265.182 126.093 260.367 126.458 260.367 126.458C260.367 126.458 260.387 115.893 260.387 106.133C260.387 96.1217 289.027 102.331 307.71 97.9419C320.947 94.8326 330.159 94.9083 339.866 85.8076C344.047 81.8881 332.487 88.2438 326.519 86.7177C311.368 82.8436 338.653 85.2009 360.798 67.3027C375.14 55.7113 336.832 73.9766 319.034 73.9766C311.654 73.9766 331.518 69.0942 338.753 64.5725C346.033 60.0221 328.642 61.8423 315.901 58.8087C301.617 55.4078 367.809 55.2381 352.304 49.4046C321.665 37.8771 294.969 25.136 250.376 26.0461C235.489 26.3499 201.232 29.9897 213.669 36.3602C219.529 39.3614 217.674 37.3888 224.287 42.4274C237.028 52.1348 209.726 41.5173 193.951 41.5173C174.882 41.5173 156.187 42.4588 141.167 55.1684C129.336 65.1792 158.087 52.8739 172.109 57.2919C194.255 64.2692 143.29 60.3255 115.381 75.4934C87.4725 90.6613 164.22 76.9569 190.614 81.2572Z" fill="#004389"/>
<path d="M215.821 290.886C226.828 297.174 250.404 294.986 250.404 294.986V238.562C250.405 235.331 230.989 238.101 220.068 235.371C209.264 232.67 207.763 227.163 206.165 221.302L206.114 221.113C203.384 211.102 205.955 192.891 195.496 194.721C183.362 196.845 187.912 225.057 187.912 238.562C187.912 247.809 214.911 239.315 210.664 244.168C206.135 249.344 191.249 254.629 200.35 255.393C206.617 255.919 212.776 253.796 209.148 257.213C201.26 264.64 190.356 260.423 197.013 265.404C200.047 267.673 202.93 268.593 206.721 267.527C216.428 264.797 224.26 257.204 220.068 263.583C213.395 273.741 201.724 275.414 203.687 278.448C207.024 283.605 208.417 286.655 215.821 290.886Z" fill="white"/>
<path d="M187.912 164.689C182.97 165.264 184.768 154.831 188.823 151.948C202.474 142.24 250.404 137.083 250.404 137.083V224.147C246.02 227.565 239.565 227.984 223.102 226.877C218.863 225.944 216.677 223.431 215.821 219.293C214.001 210.496 213.091 200.945 214.911 196.238C220.978 196.238 231.293 188.654 224.012 189.261C216.731 189.867 215.966 188.654 214.911 186.227C211.878 179.25 224.922 185.317 233.113 176.823C237.293 172.488 232.506 173.946 220.675 173.183C214.146 172.761 222.972 169.15 228.259 165.295C238.877 157.555 204.901 162.712 187.912 164.689Z" fill="white"/>
<path d="M89.5371 180.865C89.5371 180.865 54.9543 182.382 41.6066 191.786C34.797 196.584 51.314 195.007 63.4483 193.186C80.6996 190.599 17.0849 216.781 32.8092 215.145C38.8475 214.516 39.5558 212.925 44.6402 212.718C52.2241 212.408 32.8092 226.976 28.5622 232.133C12.0853 252.14 56.6336 219.695 83.1666 219.695C132.917 219.695 186.005 247.301 160.22 228.189C149.215 220.033 121.512 210.291 134.434 210.291C148.995 210.291 157.982 212.647 152.332 208.471C138.378 198.157 99.9 195.108 115.626 190.269C123.513 187.842 132.624 184.569 126.547 182.989C111.379 179.045 89.5371 180.865 89.5371 180.865Z" fill="#004389"/>
<path d="M347.8 246.597C325.655 246.597 312.071 250.426 298.049 271.776C284.027 293.126 314.734 264.495 312.004 270.866C309.958 275.639 301.868 279.694 298.049 289.067C294.712 297.258 317.464 277.236 330.509 277.236C348.499 277.236 349.924 282.394 369.035 283.304C378.196 283.74 387.696 282.597 396.034 277.236C404.528 271.776 367.248 279.484 374.799 276.023C382.08 272.686 386.359 272.273 390.877 269.046C397.247 264.495 378.129 267.135 372.675 266.012C362.361 263.889 410.328 263.394 393.911 256.305C377.493 249.215 366.247 246.597 347.8 246.597Z" fill="#004389"/>
<path fill-rule="evenodd" clip-rule="evenodd" d="M277.987 361.658C276.817 343.307 257.907 322.111 230.766 323.036C223.113 323.297 217.191 323.692 211.617 325.498C206.134 327.275 200.797 330.488 194.586 336.708C193.719 337.577 192.414 337.838 191.28 337.368C190.146 336.899 189.406 335.793 189.406 334.565V323.038H168.474V428.606H192.136V379.159C192.136 357.505 209.415 345.183 225.809 345.183C243.3 345.183 259.785 359.334 259.785 377.035V428.606H277.987V361.658ZM256.752 431.64H253.718C253.718 433.315 255.076 434.673 256.752 434.673H281.02C282.696 434.673 284.054 433.315 284.054 431.64V361.564C284.054 361.503 284.052 361.442 284.048 361.38C282.735 339.709 261.012 315.934 230.559 316.972C222.935 317.232 216.225 317.627 209.747 319.727C204.892 321.3 200.275 323.789 195.473 327.708V320.004C195.473 318.329 194.115 316.97 192.44 316.97H165.441C163.765 316.97 162.407 318.329 162.407 320.004V431.64C162.407 433.315 163.765 434.673 165.441 434.673H195.17C196.845 434.673 198.203 433.315 198.203 431.64H195.17C198.203 431.64 198.203 431.64 198.203 431.64V379.159C198.203 361.376 212.221 351.25 225.809 351.25C240.474 351.25 253.718 363.187 253.718 377.035V431.64C253.718 431.64 253.718 431.64 256.752 431.64Z" fill="#004389"/>
<path fill-rule="evenodd" clip-rule="evenodd" d="M453.864 261.164C454.436 260.57 455.225 260.234 456.05 260.234H483.959C485.622 260.234 486.975 261.573 486.992 263.237C487.335 296.302 475.709 339.134 456.528 373.721C446.927 391.034 435.351 406.431 422.284 417.534C409.212 428.641 394.487 435.575 378.694 435.575C341.494 435.575 316.809 408.097 316.809 375.51C316.809 346.651 338.706 314.232 375.963 314.232C386.119 314.232 396.753 315.147 406.736 319.962C415.803 324.336 424.081 331.8 431.028 344.145C436.534 336.316 441.901 324.731 445.975 311.524C450.721 296.141 453.609 278.89 453.019 263.383C452.987 262.559 453.293 261.758 453.864 261.164ZM459.156 266.302C459.309 281.781 456.355 298.456 451.773 313.312C446.893 329.131 440.062 343.222 432.862 351.701C432.201 352.479 431.193 352.873 430.18 352.749C429.166 352.624 428.283 351.998 427.83 351.083C420.952 337.179 412.76 329.604 404.1 325.427C395.359 321.211 385.829 320.299 375.963 320.299C342.842 320.299 322.876 349.159 322.876 375.51C322.876 404.809 344.908 429.508 378.694 429.508C392.629 429.508 406.011 423.398 418.356 412.91C430.705 402.418 441.855 387.669 451.222 370.779C469.394 338.012 480.546 297.748 480.923 266.302H459.156Z" fill="#004389"/>
<path fill-rule="evenodd" clip-rule="evenodd" d="M379.025 402.518C394.941 402.518 407.844 389.616 407.844 373.699C407.844 357.783 394.941 344.88 379.025 344.88C363.109 344.88 350.206 357.783 350.206 373.699C350.206 389.616 363.109 402.518 379.025 402.518ZM379.025 408.585C398.292 408.585 413.911 392.966 413.911 373.699C413.911 354.432 398.292 338.813 379.025 338.813C359.758 338.813 344.139 354.432 344.139 373.699C344.139 392.966 359.758 408.585 379.025 408.585Z" fill="#004389"/>
<path fill-rule="evenodd" clip-rule="evenodd" d="M37.7646 321.212C37.7646 319.537 39.1228 318.179 40.7982 318.179H70.8307C72.3003 318.179 73.5586 319.232 73.817 320.679C79.6855 353.542 109.302 394.488 157.183 427.312C158.279 428.064 158.759 429.442 158.365 430.712C157.972 431.982 156.797 432.848 155.468 432.848H109.964C109.299 432.848 108.652 432.63 108.124 432.226C93.017 420.701 75.502 399.673 61.7965 378.408C54.9249 367.747 48.9516 356.935 44.6849 347.111C40.454 337.37 37.7646 328.296 37.7646 321.212ZM44.0128 324.246C44.6269 329.722 46.7871 336.722 50.2498 344.694C54.3539 354.143 60.1547 364.661 66.8962 375.121C80.1647 395.708 96.8488 415.718 110.999 426.781H145.947C102.949 395.231 75.1822 356.889 68.3302 324.246H44.0128Z" fill="#004389"/>
<path fill-rule="evenodd" clip-rule="evenodd" d="M48.0467 298.772C55.4185 298.772 61.3945 292.796 61.3945 285.424C61.3945 278.052 55.4185 272.076 48.0467 272.076C40.675 272.076 34.699 278.052 34.699 285.424C34.699 292.796 40.675 298.772 48.0467 298.772ZM48.0467 304.839C58.7693 304.839 67.4616 296.147 67.4616 285.424C67.4616 274.702 58.7693 266.009 48.0467 266.009C37.3242 266.009 28.6318 274.702 28.6318 285.424C28.6318 296.147 37.3242 304.839 48.0467 304.839Z" fill="#004389"/>
</svg>
